<mxfile host="app.diagrams.net" modified="2023-04-20T14:11:21.208Z" agent="Mozilla/5.0 (Macintosh; Intel Mac OS X 10_15_7) AppleWebKit/537.36 (KHTML, like Gecko) Chrome/112.0.0.0 Safari/537.36" version="21.2.1" etag="Q-vAyyK0dLNMKTg39Jzw" type="github">
  <diagram name="Page-1" id="-D0R_3WEhLiM1xzP-N6L">
    <mxGraphModel>
      <root>
        <mxCell id="0" />
        <mxCell id="1" parent="0" />
      </root>
    </mxGraphModel>
  </diagram>
</mxfile>
